<svg width="46" height="44" viewBox="0 0 46 44" fill="none" xmlns="http://www.w3.org/2000/svg" xmlns:xlink="http://www.w3.org/1999/xlink">
<path d="M2.975,40L4.975,40L2.975,40ZM2.975,16.746L4.975,16.746L4.975,16.736L2.975,16.746ZM3.612,15.567L4.8,17.176L4.813,17.167L3.612,15.567ZM21.636,2.036L22.837,3.636L22.842,3.632L21.636,2.036ZM22.97,1.609L22.97,3.609L22.97,1.609ZM24.305,2.036L23.098,3.632L23.104,3.636L24.305,2.036ZM42.337,15.567L41.137,17.167L41.137,17.167L42.337,15.567ZM42.975,16.746L44.975,16.746L44.975,16.738L42.975,16.746ZM18.339,30.228L18.339,32.228L18.339,32.228L18.339,30.228ZM27.619,30.228L27.628,28.228L27.619,28.228L27.619,30.228ZM29.072,31.428L27.072,31.414L27.072,31.428L29.072,31.428ZM29.072,41.609L29.072,43.609C30.176,43.609 31.072,42.714 31.072,41.609L29.072,41.609ZM16.877,41.609L14.877,41.609C14.877,42.714 15.773,43.609 16.877,43.609L16.877,41.609ZM16.877,31.428L18.877,31.428L18.877,31.414L16.877,31.428ZM41.003,39.609L4.946,39.609L4.946,43.609L41.003,43.609L41.003,39.609ZM4.946,39.609C4.899,39.609 4.86,39.601 4.832,39.592C4.804,39.583 4.802,39.576 4.817,39.589L2.288,42.688C3.049,43.309 4.01,43.609 4.946,43.609L4.946,39.609ZM4.817,39.589C4.85,39.616 4.975,39.75 4.975,40L0.975,40C0.975,41.104 1.515,42.057 2.288,42.688L4.817,39.589ZM4.975,40L4.975,16.746L0.975,16.746L0.975,40L4.975,40ZM4.975,16.736C4.975,16.863 4.942,16.973 4.899,17.052L1.38,15.15C1.117,15.636 0.972,16.185 0.975,16.756L4.975,16.736ZM4.899,17.052C4.857,17.129 4.814,17.165 4.8,17.176L2.424,13.958C2.006,14.267 1.641,14.667 1.38,15.15L4.899,17.052ZM4.813,17.167L22.837,3.636L20.435,0.437L2.411,13.968L4.813,17.167ZM22.842,3.632C22.831,3.64 22.836,3.633 22.863,3.625C22.89,3.616 22.927,3.609 22.97,3.609L22.97,-0.391C22.081,-0.391 21.171,-0.119 20.43,0.441L22.842,3.632ZM22.97,3.609C23.014,3.609 23.051,3.616 23.077,3.625C23.104,3.633 23.109,3.64 23.098,3.632L25.511,0.441C24.77,-0.119 23.86,-0.391 22.97,-0.391L22.97,3.609ZM23.104,3.636L41.137,17.167L43.538,13.967L25.505,0.437L23.104,3.636ZM41.137,17.167C41.126,17.159 41.086,17.125 41.047,17.053L44.566,15.151C44.308,14.673 43.949,14.276 43.537,13.967L41.137,17.167ZM41.047,17.053C41.007,16.979 40.975,16.876 40.975,16.755L44.975,16.738C44.972,16.173 44.826,15.632 44.566,15.151L41.047,17.053ZM40.975,16.746L40.975,40L44.975,40L44.975,16.746L40.975,16.746ZM40.975,40C40.975,39.75 41.099,39.616 41.133,39.589L43.662,42.688C44.435,42.057 44.975,41.104 44.975,40L40.975,40ZM41.133,39.589C41.148,39.576 41.145,39.583 41.117,39.592C41.09,39.601 41.05,39.609 41.003,39.609L41.003,43.609C41.94,43.609 42.9,43.309 43.662,42.688L41.133,39.589ZM18.339,32.228L27.619,32.228L27.619,28.228L18.339,28.228L18.339,32.228ZM27.609,32.228C27.589,32.228 27.562,32.225 27.528,32.213L28.827,28.43C28.439,28.297 28.032,28.23 27.628,28.229L27.609,32.228ZM27.528,32.213C27.493,32.202 27.439,32.177 27.376,32.125L29.923,29.041C29.591,28.766 29.216,28.564 28.827,28.43L27.528,32.213ZM27.376,32.125C27.313,32.073 27.236,31.989 27.174,31.865L30.753,30.078C30.546,29.664 30.256,29.316 29.923,29.041L27.376,32.125ZM27.174,31.865C27.111,31.738 27.071,31.583 27.072,31.414L31.072,31.443C31.075,30.96 30.961,30.495 30.753,30.078L27.174,31.865ZM27.072,31.428L27.072,41.609L31.072,41.609L31.072,31.428L27.072,31.428ZM29.072,39.609L16.877,39.609L16.877,43.609L29.072,43.609L29.072,39.609ZM18.877,41.609L18.877,31.428L14.877,31.428L14.877,41.609L18.877,41.609ZM18.877,31.414C18.878,31.584 18.838,31.739 18.774,31.866L15.198,30.073C14.989,30.491 14.874,30.958 14.877,31.443L18.877,31.414ZM18.774,31.866C18.712,31.99 18.635,32.074 18.571,32.126L16.033,29.034C15.698,29.309 15.406,29.658 15.198,30.073L18.774,31.866ZM18.571,32.126C18.509,32.178 18.455,32.202 18.42,32.214L17.135,28.426C16.745,28.558 16.368,28.76 16.033,29.034L18.571,32.126ZM18.42,32.214C18.386,32.226 18.359,32.228 18.339,32.228L18.339,28.228C17.933,28.228 17.525,28.294 17.135,28.426L18.42,32.214Z" fill="#7D7D7E"/>
</svg>
