<svg width="72" height="66" viewBox="0 0 72 66" fill="none" xmlns="http://www.w3.org/2000/svg" xmlns:xlink="http://www.w3.org/1999/xlink">
<path d="M29.977,46.049C29.425,46.049 28.977,46.497 28.977,47.049C28.977,47.601 29.425,48.049 29.977,48.049L29.977,46.049ZM44.436,47.049L44.436,48.049L44.439,48.049L44.436,47.049ZM49.453,41.845L50.453,41.848L50.453,41.84L49.453,41.845ZM44.436,36.656L44.439,35.656L44.436,35.656L44.436,36.656ZM35.269,36.656L35.257,37.656L35.269,37.656L35.269,36.656ZM29.211,35.637L29.526,34.688C29.494,34.677 29.462,34.668 29.429,34.661L29.211,35.637ZM17.022,41.845L17.022,42.845C17.438,42.845 17.809,42.589 17.957,42.201L17.022,41.845ZM11.239,40.845C10.687,40.845 10.239,41.293 10.239,41.845C10.239,42.398 10.687,42.845 11.239,42.845L11.239,40.845ZM48.859,40.992C48.388,41.28 48.239,41.895 48.527,42.366C48.815,42.838 49.43,42.986 49.902,42.699L48.859,40.992ZM62.393,33.897L62.914,34.751L62.925,34.744L62.393,33.897ZM69.275,35.637L70.139,35.133L70.137,35.13L69.275,35.637ZM67.613,42.775L67.073,41.933C67.047,41.95 67.022,41.968 66.997,41.987L67.613,42.775ZM50.595,56.062L51.21,56.85L51.21,56.85L50.595,56.062ZM40.069,59.706L40.07,58.706L40.069,58.706L40.069,59.706ZM11.152,58.706C10.6,58.706 10.152,59.153 10.152,59.706C10.152,60.258 10.6,60.706 11.152,60.706L11.152,58.706ZM10.4,38.381L10.4,39.381L10.4,38.381ZM2.781,38.381L2.781,39.381L2.781,38.381ZM2.781,63.14L2.781,62.14L2.781,63.14ZM45.273,19.009C45.655,18.61 45.642,17.977 45.244,17.595C44.846,17.212 44.213,17.225 43.83,17.623L45.273,19.009ZM41.009,22.005L40.287,21.312L40.278,21.323L41.009,22.005ZM40.843,22.078L40.843,21.078L40.843,22.078ZM40.676,22.005L39.815,22.513C39.852,22.576 39.895,22.634 39.945,22.687L40.676,22.005ZM38.493,18.301L39.355,17.793C39.175,17.488 38.847,17.301 38.493,17.301L38.493,18.301ZM28.951,18.301L28.951,17.301C28.532,17.301 28.158,17.561 28.013,17.954L28.951,18.301ZM18.15,25.994L18.151,24.994L18.15,24.994L18.15,25.994ZM18.15,2L18.15,3L18.151,3L18.15,2ZM28.951,9.678L28.013,10.027C28.159,10.418 28.533,10.678 28.951,10.678L28.951,9.678ZM50.219,9.678L50.88,8.927C50.697,8.767 50.462,8.678 50.219,8.678L50.219,9.678ZM55.655,14.462L56.387,15.144C56.571,14.946 56.668,14.682 56.654,14.413C56.641,14.143 56.519,13.89 56.316,13.711L55.655,14.462ZM48.426,22.215L47.724,22.927C47.916,23.117 48.177,23.22 48.447,23.215C48.717,23.209 48.973,23.095 49.158,22.897L48.426,22.215ZM45.254,17.679C44.861,17.291 44.228,17.295 43.84,17.689C43.452,18.082 43.456,18.715 43.849,19.103L45.254,17.679ZM29.977,48.049L44.436,48.049L44.436,46.049L29.977,46.049L29.977,48.049ZM44.439,48.049C46.044,48.044 47.575,47.38 48.699,46.215L47.259,44.826C46.503,45.611 45.486,46.046 44.433,46.049L44.439,48.049ZM48.699,46.215C49.821,45.05 50.448,43.48 50.453,41.848L48.453,41.842C48.45,42.969 48.017,44.041 47.259,44.826L48.699,46.215ZM50.453,41.84C50.444,40.211 49.815,38.645 48.693,37.485L47.255,38.875C48.012,39.658 48.446,40.727 48.453,41.851L50.453,41.84ZM48.693,37.485C47.57,36.323 46.041,35.661 44.439,35.656L44.433,37.656C45.484,37.66 46.499,38.093 47.255,38.875L48.693,37.485ZM44.436,35.656L35.269,35.656L35.269,37.656L44.436,37.656L44.436,35.656ZM35.281,35.657C33.327,35.633 31.388,35.306 29.526,34.688L28.896,36.586C30.952,37.269 33.096,37.63 35.257,37.656L35.281,35.657ZM29.429,34.661C27.527,34.236 24.945,33.988 22.441,34.842C19.885,35.715 17.532,37.698 16.088,41.489L17.957,42.201C19.203,38.929 21.129,37.403 23.087,36.735C25.099,36.049 27.266,36.227 28.993,36.613L29.429,34.661ZM17.022,40.845L11.239,40.845L11.239,42.845L17.022,42.845L17.022,40.845ZM49.902,42.699L62.914,34.751L61.872,33.044L48.859,40.992L49.902,42.699ZM62.925,34.744C63.831,34.174 64.913,34.003 65.936,34.261L66.426,32.322C64.869,31.929 63.226,32.193 61.861,33.05L62.925,34.744ZM65.936,34.261C66.959,34.52 67.853,35.192 68.413,36.144L70.137,35.13C69.314,33.73 67.982,32.716 66.426,32.322L65.936,34.261ZM68.411,36.14C68.967,37.095 69.139,38.243 68.885,39.334L70.833,39.787C71.202,38.204 70.954,36.533 70.139,35.133L68.411,36.14ZM68.885,39.334C68.632,40.423 67.976,41.355 67.073,41.933L68.152,43.617C69.505,42.75 70.464,41.371 70.833,39.787L68.885,39.334ZM66.997,41.987L49.98,55.273L51.21,56.85L68.228,43.563L66.997,41.987ZM49.98,55.273C47.119,57.506 43.641,58.709 40.07,58.706L40.068,60.706C44.092,60.709 48.003,59.353 51.21,56.85L49.98,55.273ZM40.069,58.706L11.152,58.706L11.152,60.706L40.069,60.706L40.069,58.706ZM12.181,39.191C12.181,38.722 12.002,38.266 11.672,37.924L10.233,39.312C10.196,39.274 10.181,39.23 10.181,39.191L12.181,39.191ZM11.672,37.924C11.341,37.581 10.885,37.381 10.4,37.381L10.4,39.381C10.33,39.381 10.271,39.352 10.233,39.312L11.672,37.924ZM10.4,37.381L2.781,37.381L2.781,39.381L10.4,39.381L10.4,37.381ZM2.781,37.381C2.297,37.381 1.84,37.581 1.509,37.924L2.949,39.312C2.911,39.352 2.851,39.381 2.781,39.381L2.781,37.381ZM1.509,37.924C1.179,38.266 1,38.722 1,39.191L3,39.191C3,39.23 2.985,39.274 2.949,39.312L1.509,37.924ZM1,39.191L1,62.33L3,62.33L3,39.191L1,39.191ZM1,62.33C1,62.799 1.179,63.255 1.509,63.597L2.949,62.209C2.985,62.247 3,62.291 3,62.33L1,62.33ZM1.509,63.597C1.84,63.94 2.296,64.14 2.781,64.14L2.781,62.14C2.851,62.14 2.911,62.169 2.949,62.209L1.509,63.597ZM2.781,64.14L10.4,64.14L10.4,62.14L2.781,62.14L2.781,64.14ZM10.4,64.14C10.885,64.14 11.342,63.94 11.672,63.597L10.233,62.209C10.271,62.169 10.33,62.14 10.4,62.14L10.4,64.14ZM11.672,63.597C12.002,63.255 12.181,62.799 12.181,62.33L10.181,62.33C10.181,62.291 10.196,62.247 10.233,62.209L11.672,63.597ZM43.83,17.623L40.288,21.313L41.73,22.698L45.273,19.009L43.83,17.623ZM40.278,21.323C40.346,21.249 40.432,21.187 40.53,21.144L41.335,22.975C41.491,22.906 41.628,22.807 41.74,22.687L40.278,21.323ZM40.53,21.144C40.63,21.1 40.736,21.078 40.843,21.078L40.843,23.078C41.011,23.078 41.179,23.044 41.335,22.975L40.53,21.144ZM40.843,21.078C40.95,21.078 41.057,21.101 41.155,21.144L40.35,22.975C40.505,23.043 40.673,23.078 40.843,23.078L40.843,21.078ZM41.155,21.144C41.25,21.185 41.336,21.246 41.408,21.323L39.945,22.687C40.06,22.811 40.198,22.908 40.35,22.975L41.155,21.144ZM41.538,21.497L39.355,17.793L37.632,18.809L39.815,22.513L41.538,21.497ZM38.493,17.301L28.951,17.301L28.951,19.301L38.493,19.301L38.493,17.301ZM28.013,17.954C27.242,20.034 25.883,21.817 24.122,23.072L25.282,24.701C27.377,23.209 28.981,21.097 29.888,18.648L28.013,17.954ZM24.122,23.072C22.361,24.326 20.279,24.995 18.151,24.994L18.15,26.994C20.7,26.995 23.186,26.194 25.282,24.701L24.122,23.072ZM18.15,24.994C15.36,24.994 12.676,23.845 10.691,21.786L9.251,23.174C11.605,25.616 14.805,26.994 18.15,26.994L18.15,24.994ZM10.691,21.786C8.705,19.726 7.584,16.925 7.584,13.997L5.584,13.997C5.584,17.433 6.899,20.734 9.251,23.174L10.691,21.786ZM7.584,13.997C7.584,11.069 8.705,8.268 10.691,6.208L9.251,4.82C6.899,7.26 5.584,10.562 5.584,13.997L7.584,13.997ZM10.691,6.208C12.676,4.149 15.36,3 18.15,3L18.15,1C14.805,1 11.605,2.379 9.251,4.82L10.691,6.208ZM18.151,3C20.278,2.998 22.358,3.665 24.119,4.916L25.278,3.286C23.183,1.797 20.698,0.998 18.149,1L18.151,3ZM24.119,4.916C25.88,6.168 27.24,7.949 28.013,10.027L29.888,9.329C28.978,6.884 27.373,4.775 25.278,3.286L24.119,4.916ZM28.951,10.678L50.219,10.678L50.219,8.678L28.951,8.678L28.951,10.678ZM49.558,10.429L54.995,15.213L56.316,13.711L50.88,8.927L49.558,10.429ZM54.924,13.78L47.695,21.533L49.158,22.897L56.387,15.144L54.924,13.78ZM49.129,21.503L45.254,17.679L43.849,19.103L47.724,22.927L49.129,21.503ZM12.181,62.33L12.181,39.191L10.181,39.191L10.181,62.33L12.181,62.33Z" fill="#093030"/>
<path d="M16.315,14.229C17.711,14.229 18.842,13.056 18.842,11.609C18.842,10.161 17.711,8.988 16.315,8.988C14.92,8.988 13.789,10.161 13.789,11.609C13.789,13.056 14.92,14.229 16.315,14.229Z" fill="#093030"/>
</svg>
