<svg width="66" height="36" viewBox="0 0 66 36" fill="none" xmlns="http://www.w3.org/2000/svg" xmlns:xlink="http://www.w3.org/1999/xlink">
<path d="M62.975,17.609L64.975,17.609C64.975,16.505 64.079,15.609 62.975,15.609L62.975,17.609ZM60.975,26.715C60.975,27.819 61.87,28.715 62.975,28.715C64.079,28.715 64.975,27.819 64.975,26.715L60.975,26.715ZM45.781,26.715C45.781,27.819 46.677,28.715 47.781,28.715C48.886,28.715 49.781,27.819 49.781,26.715L45.781,26.715ZM32.604,19.609L47.781,19.609L47.781,15.609L32.604,15.609L32.604,19.609ZM47.781,19.609L62.975,19.609L62.975,15.609L47.781,15.609L47.781,19.609ZM60.975,17.609L60.975,26.715L64.975,26.715L64.975,17.609L60.975,17.609ZM30.604,17.609C30.604,24.813 24.843,30.609 17.789,30.609L17.789,34.609C27.099,34.609 34.604,26.975 34.604,17.609L30.604,17.609ZM17.789,30.609C10.735,30.609 4.975,24.813 4.975,17.609L0.975,17.609C0.975,26.975 8.479,34.609 17.789,34.609L17.789,30.609ZM4.975,17.609C4.975,10.406 10.735,4.609 17.789,4.609L17.789,0.609C8.479,0.609 0.975,8.244 0.975,17.609L4.975,17.609ZM17.789,4.609C24.843,4.609 30.604,10.406 30.604,17.609L34.604,17.609C34.604,8.244 27.099,0.609 17.789,0.609L17.789,4.609ZM45.781,17.609L45.781,26.715L49.781,26.715L49.781,17.609L45.781,17.609Z" fill="#7D7D7E"/>
</svg>
