<svg width="46" height="44" viewBox="0 0 46 44" fill="none" xmlns="http://www.w3.org/2000/svg" xmlns:xlink="http://www.w3.org/1999/xlink">
<path d="M28.699,15.739C28.699,16.568 29.37,17.239 30.199,17.239C31.027,17.239 31.699,16.568 31.699,15.739L28.699,15.739ZM2.475,7.269C2.475,6.44 1.803,5.769 0.975,5.769C0.146,5.769 -0.525,6.44 -0.525,7.269L2.475,7.269ZM18.902,23.886C19.727,23.81 20.335,23.08 20.259,22.255C20.184,21.43 19.454,20.822 18.629,20.898L18.902,23.886ZM2.475,15.749C2.475,14.92 1.803,14.249 0.975,14.249C0.146,14.249 -0.525,14.92 -0.525,15.749L2.475,15.749ZM17.734,33.625C18.561,33.578 19.194,32.87 19.148,32.043C19.101,31.216 18.393,30.583 17.566,30.629L17.734,33.625ZM2.475,24.678C2.475,23.85 1.803,23.178 0.975,23.178C0.146,23.178 -0.525,23.85 -0.525,24.678L2.475,24.678ZM15.587,41.16L15.6,39.66L15.587,39.66L15.587,41.16ZM24.319,41.611C25.123,41.409 25.609,40.593 25.407,39.79C25.204,38.987 24.388,38.5 23.585,38.703L24.319,41.611ZM28.417,31.996C28.417,31.167 27.746,30.496 26.917,30.496C26.089,30.496 25.417,31.167 25.417,31.996L28.417,31.996ZM30.208,35.303L30.208,33.803L30.204,33.803L30.208,35.303ZM33.489,31.996L34.989,31.996C34.989,31.943 34.986,31.89 34.981,31.838L33.489,31.996ZM31.379,29.185L30.64,30.49C30.697,30.522 30.756,30.551 30.817,30.575L31.379,29.185ZM26.917,25.437L28.417,25.437L28.417,25.433L26.917,25.437ZM30.208,22.12L30.204,23.62L30.208,23.62L30.208,22.12ZM31.989,25.433C31.987,26.261 32.656,26.935 33.485,26.937C34.313,26.939 34.987,26.27 34.989,25.441L31.989,25.433ZM28.699,22.054C28.699,22.883 29.37,23.554 30.199,23.554C31.027,23.554 31.699,22.883 31.699,22.054L28.699,22.054ZM31.699,20.49C31.699,19.661 31.027,18.99 30.199,18.99C29.37,18.99 28.699,19.661 28.699,20.49L31.699,20.49ZM28.699,36.859C28.699,37.687 29.37,38.359 30.199,38.359C31.027,38.359 31.699,37.687 31.699,36.859L28.699,36.859ZM31.699,35.303C31.699,34.475 31.027,33.803 30.199,33.803C29.37,33.803 28.699,34.475 28.699,35.303L31.699,35.303ZM28.699,7.259C28.699,7.475 28.592,7.846 28.038,8.352C27.484,8.858 26.599,9.383 25.378,9.856C22.946,10.796 19.485,11.409 15.587,11.409L15.587,14.409C19.758,14.409 23.603,13.758 26.46,12.654C27.883,12.103 29.138,11.411 30.062,10.566C30.988,9.72 31.699,8.604 31.699,7.259L28.699,7.259ZM15.587,11.409C11.688,11.409 8.227,10.796 5.795,9.856C4.575,9.383 3.689,8.858 3.135,8.352C2.582,7.846 2.475,7.475 2.475,7.259L-0.525,7.259C-0.525,8.604 0.185,9.72 1.111,10.566C2.035,11.411 3.29,12.103 4.713,12.654C7.57,13.758 11.415,14.409 15.587,14.409L15.587,11.409ZM2.475,7.259C2.475,7.044 2.582,6.673 3.135,6.167C3.689,5.661 4.575,5.135 5.795,4.663C8.227,3.723 11.688,3.109 15.587,3.109L15.587,0.109C11.415,0.109 7.57,0.761 4.713,1.865C3.29,2.416 2.035,3.108 1.111,3.953C0.185,4.799 -0.525,5.914 -0.525,7.259L2.475,7.259ZM15.587,3.109C19.485,3.109 22.946,3.723 25.378,4.663C26.599,5.135 27.484,5.661 28.038,6.167C28.592,6.673 28.699,7.044 28.699,7.259L31.699,7.259C31.699,5.914 30.988,4.799 30.062,3.953C29.138,3.108 27.883,2.416 26.46,1.865C23.603,0.761 19.758,0.109 15.587,0.109L15.587,3.109ZM31.699,15.739L31.699,7.259L28.699,7.259L28.699,15.739L31.699,15.739ZM-0.525,7.269L-0.525,16.91L2.475,16.91L2.475,7.269L-0.525,7.269ZM-0.525,16.91C-0.525,18.253 0.181,19.367 1.106,20.212C2.029,21.056 3.281,21.745 4.703,22.291C7.555,23.389 11.4,24.032 15.587,24.032L15.587,21.032C11.668,21.032 8.206,20.425 5.78,19.491C4.561,19.023 3.68,18.501 3.13,17.998C2.581,17.496 2.475,17.127 2.475,16.91L-0.525,16.91ZM15.587,24.032C16.726,24.032 17.831,23.984 18.902,23.886L18.629,20.898C17.655,20.987 16.641,21.032 15.587,21.032L15.587,24.032ZM-0.525,15.749L-0.525,26.561L2.475,26.561L2.475,15.749L-0.525,15.749ZM-0.525,26.561C-0.525,27.904 0.181,29.018 1.106,29.863C2.029,30.707 3.281,31.396 4.703,31.942C7.555,33.04 11.4,33.683 15.587,33.683L15.587,30.683C11.668,30.683 8.206,30.076 5.78,29.142C4.561,28.674 3.68,28.152 3.13,27.649C2.581,27.147 2.475,26.778 2.475,26.561L-0.525,26.561ZM15.587,33.683C16.32,33.683 17.035,33.664 17.734,33.625L17.566,30.629C16.926,30.665 16.267,30.683 15.587,30.683L15.587,33.683ZM-0.525,24.678L-0.525,35.538L2.475,35.538L2.475,24.678L-0.525,24.678ZM-0.525,35.538C-0.525,36.881 0.181,37.994 1.106,38.84C2.029,39.683 3.281,40.372 4.703,40.919C7.555,42.016 11.4,42.66 15.587,42.66L15.587,39.66C11.668,39.66 8.206,39.052 5.78,38.119C4.561,37.65 3.68,37.128 3.13,36.625C2.581,36.124 2.475,35.755 2.475,35.538L-0.525,35.538ZM15.573,42.66C18.521,42.685 21.46,42.333 24.319,41.611L23.585,38.703C20.974,39.362 18.291,39.683 15.6,39.66L15.573,42.66ZM41.526,28.679C41.526,35.003 36.443,40.109 30.199,40.109L30.199,43.109C38.123,43.109 44.526,36.637 44.526,28.679L41.526,28.679ZM30.199,40.109C23.954,40.109 18.871,35.003 18.871,28.679L15.871,28.679C15.871,36.637 22.275,43.109 30.199,43.109L30.199,40.109ZM18.871,28.679C18.871,22.355 23.954,17.249 30.199,17.249L30.199,14.249C22.275,14.249 15.871,20.721 15.871,28.679L18.871,28.679ZM30.199,17.249C36.443,17.249 41.526,22.355 41.526,28.679L44.526,28.679C44.526,20.721 38.123,14.249 30.199,14.249L30.199,17.249ZM25.417,31.996C25.417,32.627 25.541,33.252 25.781,33.835L28.555,32.693C28.464,32.472 28.417,32.235 28.417,31.996L25.417,31.996ZM25.781,33.835C26.021,34.418 26.374,34.949 26.818,35.396L28.945,33.28C28.779,33.113 28.646,32.913 28.555,32.693L25.781,33.835ZM26.818,35.396C27.263,35.843 27.791,36.198 28.374,36.44L29.524,33.669C29.309,33.58 29.112,33.448 28.945,33.28L26.818,35.396ZM28.374,36.44C28.957,36.682 29.582,36.805 30.212,36.803L30.204,33.803C29.971,33.804 29.74,33.759 29.524,33.669L28.374,36.44ZM30.208,36.803C31.48,36.803 32.697,36.294 33.593,35.391L31.463,33.278C31.128,33.616 30.676,33.803 30.208,33.803L30.208,36.803ZM33.593,35.391C34.488,34.489 34.989,33.267 34.989,31.996L31.989,31.996C31.989,32.479 31.799,32.94 31.463,33.278L33.593,35.391ZM34.981,31.838C34.887,30.952 34.555,30.107 34.021,29.395L31.621,31.196C31.83,31.474 31.96,31.805 31.997,32.154L34.981,31.838ZM34.021,29.395C33.486,28.682 32.767,28.128 31.942,27.794L30.817,30.575C31.134,30.704 31.413,30.918 31.621,31.196L34.021,29.395ZM32.118,27.88C31.607,27.59 31.026,27.355 30.555,27.161C30.046,26.951 29.626,26.775 29.266,26.571C28.911,26.37 28.706,26.192 28.59,26.034C28.494,25.903 28.417,25.734 28.417,25.437L25.417,25.437C25.417,26.363 25.692,27.157 26.174,27.812C26.635,28.439 27.235,28.869 27.789,29.182C28.338,29.493 28.93,29.736 29.413,29.935C29.934,30.15 30.324,30.311 30.64,30.49L32.118,27.88ZM28.417,25.433C28.417,25.193 28.463,24.956 28.554,24.734L25.777,23.598C25.538,24.183 25.416,24.809 25.417,25.441L28.417,25.433ZM28.554,24.734C28.644,24.513 28.777,24.313 28.943,24.145L26.813,22.032C26.368,22.481 26.016,23.013 25.777,23.598L28.554,24.734ZM28.943,24.145C29.11,23.977 29.307,23.845 29.523,23.755L28.371,20.985C27.788,21.228 27.259,21.584 26.813,22.032L28.943,24.145ZM29.523,23.755C29.739,23.665 29.971,23.619 30.204,23.62L30.212,20.62C29.58,20.618 28.955,20.742 28.371,20.985L29.523,23.755ZM30.208,23.62C30.441,23.62 30.671,23.666 30.887,23.757L32.045,20.989C31.463,20.745 30.838,20.62 30.208,20.62L30.208,23.62ZM30.887,23.757C31.102,23.847 31.299,23.979 31.465,24.147L33.598,22.037C33.154,21.589 32.627,21.232 32.045,20.989L30.887,23.757ZM31.465,24.147C31.631,24.315 31.763,24.515 31.853,24.736L34.631,23.601C34.392,23.017 34.042,22.486 33.598,22.037L31.465,24.147ZM31.853,24.736C31.944,24.956 31.99,25.193 31.989,25.433L34.989,25.441C34.991,24.81 34.869,24.185 34.631,23.601L31.853,24.736ZM31.699,22.054L31.699,20.49L28.699,20.49L28.699,22.054L31.699,22.054ZM31.699,36.859L31.699,35.303L28.699,35.303L28.699,36.859L31.699,36.859Z" fill="#7D7D7E"/>
</svg>
