<svg width="60" height="64" viewBox="0 0 60 64" fill="none" xmlns="http://www.w3.org/2000/svg" xmlns:xlink="http://www.w3.org/1999/xlink">
<path d="M30.329,0.133L31.132,-0.463C30.944,-0.717 30.646,-0.867 30.329,-0.867C30.013,-0.867 29.715,-0.717 29.526,-0.463L30.329,0.133ZM57.572,8.895L58.549,8.684C58.438,8.168 57.945,7.828 57.423,7.906L57.572,8.895ZM30.317,61.28L30.095,62.255C30.242,62.288 30.394,62.288 30.541,62.254L30.317,61.28ZM3.121,8.895L3.268,7.906C2.747,7.829 2.256,8.169 2.144,8.683L3.121,8.895ZM23.5,32.996C23.068,32.652 22.439,32.723 22.094,33.154C21.75,33.586 21.821,34.215 22.253,34.56L23.5,32.996ZM27.818,37.719L27.194,38.5C27.6,38.824 28.187,38.783 28.544,38.406L27.818,37.719ZM42.095,24.096C42.475,23.695 42.458,23.062 42.057,22.682C41.656,22.302 41.023,22.32 40.643,22.721L42.095,24.096ZM30.329,0.133C29.526,0.729 29.527,0.729 29.527,0.73C29.527,0.73 29.528,0.731 29.528,0.731C29.529,0.732 29.529,0.733 29.53,0.734C29.532,0.737 29.535,0.74 29.538,0.744C29.544,0.752 29.552,0.763 29.562,0.777C29.583,0.803 29.612,0.841 29.65,0.888C29.726,0.982 29.836,1.116 29.981,1.282C30.271,1.614 30.701,2.078 31.274,2.622C32.419,3.71 34.14,5.12 36.461,6.437C41.115,9.079 48.151,11.325 57.721,9.884L57.423,7.906C48.337,9.275 41.751,7.14 37.448,4.698C35.29,3.473 33.698,2.166 32.651,1.172C32.127,0.675 31.741,0.257 31.488,-0.033C31.362,-0.177 31.269,-0.29 31.21,-0.364C31.181,-0.401 31.159,-0.428 31.146,-0.445C31.14,-0.453 31.135,-0.459 31.133,-0.462C31.132,-0.464 31.131,-0.464 31.131,-0.465C31.131,-0.465 31.131,-0.465 31.131,-0.464C31.131,-0.464 31.132,-0.464 31.132,-0.464C31.132,-0.463 31.132,-0.463 30.329,0.133ZM57.572,8.895C56.595,9.107 56.595,9.107 56.595,9.106C56.595,9.107 56.595,9.107 56.595,9.107C56.595,9.108 56.595,9.109 56.596,9.112C56.597,9.116 56.598,9.123 56.6,9.132C56.604,9.151 56.61,9.18 56.618,9.22C56.634,9.299 56.658,9.418 56.687,9.575C56.746,9.889 56.828,10.355 56.921,10.953C57.105,12.149 57.33,13.872 57.486,15.968C57.799,20.165 57.837,25.83 56.748,31.741C55.659,37.652 53.451,43.766 49.307,48.906C45.175,54.031 39.075,58.243 30.093,60.305L30.541,62.254C39.942,60.096 46.439,55.649 50.864,50.161C55.277,44.688 57.585,38.233 58.715,32.103C59.844,25.973 59.802,20.125 59.481,15.819C59.32,13.663 59.089,11.887 58.897,10.647C58.801,10.027 58.715,9.54 58.653,9.207C58.622,9.04 58.596,8.911 58.578,8.823C58.569,8.779 58.562,8.746 58.558,8.722C58.555,8.71 58.553,8.701 58.552,8.695C58.551,8.692 58.551,8.689 58.55,8.687C58.55,8.686 58.55,8.686 58.55,8.685C58.55,8.684 58.549,8.684 57.572,8.895ZM30.54,60.305C21.559,58.254 15.463,54.049 11.337,48.926C7.198,43.789 4.998,37.674 3.916,31.76C2.835,25.847 2.879,20.176 3.198,15.976C3.357,13.878 3.584,12.153 3.77,10.956C3.863,10.357 3.946,9.891 4.005,9.577C4.035,9.419 4.059,9.3 4.075,9.221C4.083,9.182 4.089,9.152 4.093,9.133C4.095,9.124 4.096,9.117 4.097,9.113C4.098,9.11 4.098,9.109 4.098,9.108C4.098,9.108 4.098,9.108 4.098,9.107C4.098,9.108 4.098,9.108 3.121,8.895C2.144,8.683 2.144,8.683 2.144,8.684C2.144,8.685 2.144,8.685 2.143,8.686C2.143,8.688 2.142,8.691 2.142,8.694C2.14,8.7 2.138,8.709 2.136,8.721C2.131,8.745 2.124,8.778 2.115,8.822C2.097,8.91 2.072,9.039 2.04,9.206C1.977,9.54 1.89,10.027 1.794,10.648C1.601,11.889 1.367,13.667 1.204,15.824C0.877,20.134 0.827,25.986 1.949,32.12C3.071,38.252 5.372,44.709 9.779,50.181C14.199,55.668 20.693,60.108 30.095,62.255L30.54,60.305ZM2.975,9.884C12.544,11.301 19.57,9.055 24.215,6.42C26.531,5.105 28.248,3.7 29.39,2.616C29.961,2.074 30.39,1.611 30.679,1.28C30.823,1.114 30.933,0.981 31.009,0.887C31.046,0.84 31.075,0.803 31.096,0.776C31.106,0.763 31.115,0.752 31.121,0.744C31.124,0.74 31.126,0.737 31.128,0.734C31.129,0.733 31.13,0.732 31.131,0.731C31.131,0.731 31.131,0.73 31.132,0.73C31.132,0.729 31.132,0.729 30.329,0.133C29.526,-0.463 29.526,-0.463 29.527,-0.464C29.527,-0.464 29.527,-0.464 29.527,-0.464C29.527,-0.465 29.527,-0.465 29.527,-0.465C29.527,-0.464 29.527,-0.464 29.525,-0.462C29.523,-0.459 29.519,-0.453 29.512,-0.445C29.499,-0.428 29.478,-0.401 29.449,-0.364C29.39,-0.291 29.298,-0.179 29.172,-0.035C28.92,0.253 28.535,0.67 28.013,1.165C26.969,2.156 25.381,3.458 23.228,4.68C18.934,7.116 12.355,9.251 3.268,7.906L2.975,9.884ZM22.253,34.56L27.194,38.5L28.441,36.937L23.5,32.996L22.253,34.56ZM28.544,38.406L42.095,24.096L40.643,22.721L27.092,37.031L28.544,38.406Z" fill="#093030"/>
</svg>
