<svg width="46" height="44" viewBox="0 0 46 44" fill="none" xmlns="http://www.w3.org/2000/svg" xmlns:xlink="http://www.w3.org/1999/xlink">
<g opacity="0.978">
<path d="M10.312,0.996C5.158,0.996 0.979,5.175 0.979,10.329L0.979,33.663C0.979,38.817 5.158,42.996 10.312,42.996L33.645,42.996C38.8,42.996 42.979,38.817 42.979,33.663L42.979,24.329C42.979,23.041 41.933,21.996 40.645,21.996C39.357,21.996 38.312,23.041 38.312,24.329L38.312,33.663C38.312,36.241 36.224,38.329 33.645,38.329L10.312,38.329C7.734,38.329 5.645,36.241 5.645,33.663L5.645,10.329C5.645,7.751 7.734,5.663 10.312,5.663L28.979,5.663C30.267,5.663 31.312,4.617 31.312,3.329C31.312,2.041 30.267,0.996 28.979,0.996L10.312,0.996ZM42.979,3.329C42.381,3.329 41.756,3.539 41.301,3.985L20.957,23.965C20.357,24.556 19.753,24.514 19.281,23.818L16.948,20.391C16.234,19.338 14.736,19.033 13.667,19.735C12.596,20.437 12.295,21.891 13.009,22.943L15.343,26.371C17.445,29.472 21.559,29.883 24.24,27.246L44.656,7.193C45.566,6.3 45.566,4.881 44.656,3.985C44.201,3.537 43.576,3.329 42.979,3.329Z" fill="#9192A5"/>
</g>
</svg>
