<svg width="84" height="64" viewBox="0 0 84 64" fill="none" xmlns="http://www.w3.org/2000/svg" xmlns:xlink="http://www.w3.org/1999/xlink">
<path d="M35.582,30.798C35.03,30.798 34.582,31.246 34.582,31.798C34.582,32.35 35.03,32.798 35.582,32.798L35.582,30.798ZM58.201,31.798L59.201,31.798C59.201,31.246 58.754,30.798 58.201,30.798L58.201,31.798ZM58.201,44.11L57.201,44.11C57.201,44.504 57.432,44.861 57.791,45.022C58.15,45.184 58.57,45.12 58.864,44.859L58.201,44.11ZM82.426,22.661L83.088,23.409C83.303,23.22 83.426,22.947 83.426,22.661C83.426,22.374 83.303,22.102 83.088,21.912L82.426,22.661ZM58.201,1.211L58.864,0.462C58.57,0.201 58.15,0.138 57.791,0.299C57.432,0.461 57.201,0.817 57.201,1.211L58.201,1.211ZM58.201,13.523L58.201,14.523C58.754,14.523 59.201,14.075 59.201,13.523L58.201,13.523ZM35.582,12.523C35.03,12.523 34.582,12.971 34.582,13.523C34.582,14.075 35.03,14.523 35.582,14.523L35.582,12.523ZM48.843,32.771C49.396,32.771 49.843,32.323 49.843,31.771C49.843,31.218 49.396,30.771 48.843,30.771L48.843,32.771ZM26.224,31.771L25.224,31.771C25.224,32.323 25.672,32.771 26.224,32.771L26.224,31.771ZM26.224,19.458L27.224,19.458C27.224,19.065 26.994,18.708 26.635,18.547C26.276,18.385 25.856,18.449 25.561,18.71L26.224,19.458ZM2,40.908L1.337,40.159C1.123,40.349 1,40.622 1,40.908C1,41.194 1.123,41.467 1.337,41.657L2,40.908ZM26.224,62.358L25.561,63.106C25.856,63.367 26.276,63.431 26.635,63.27C26.994,63.108 27.224,62.751 27.224,62.358L26.224,62.358ZM26.224,50.046L26.224,49.046C25.672,49.046 25.224,49.493 25.224,50.046L26.224,50.046ZM48.843,51.046C49.396,51.046 49.843,50.598 49.843,50.046C49.843,49.493 49.396,49.046 48.843,49.046L48.843,51.046ZM35.582,32.798L58.201,32.798L58.201,30.798L35.582,30.798L35.582,32.798ZM57.201,31.798L57.201,44.11L59.201,44.11L59.201,31.798L57.201,31.798ZM58.864,44.859L83.088,23.409L81.763,21.912L57.538,43.362L58.864,44.859ZM83.088,21.912L58.864,0.462L57.538,1.96L81.763,23.409L83.088,21.912ZM57.201,1.211L57.201,13.523L59.201,13.523L59.201,1.211L57.201,1.211ZM58.201,12.523L35.582,12.523L35.582,14.523L58.201,14.523L58.201,12.523ZM48.843,30.771L26.224,30.771L26.224,32.771L48.843,32.771L48.843,30.771ZM27.224,31.771L27.224,19.458L25.224,19.458L25.224,31.771L27.224,31.771ZM25.561,18.71L1.337,40.159L2.663,41.657L26.887,20.207L25.561,18.71ZM1.337,41.657L25.561,63.106L26.887,61.609L2.663,40.159L1.337,41.657ZM27.224,62.358L27.224,50.046L25.224,50.046L25.224,62.358L27.224,62.358ZM26.224,51.046L48.843,51.046L48.843,49.046L26.224,49.046L26.224,51.046Z" fill="#093030"/>
</svg>
